<?xml version="1.0" encoding="utf-8"?>
<!-- Generator: Adobe Illustrator 16.0.0, SVG Export Plug-In . SVG Version: 6.00 Build 0)  -->
<!DOCTYPE svg PUBLIC "-//W3C//DTD SVG 1.1//EN" "http://www.w3.org/Graphics/SVG/1.1/DTD/svg11.dtd">
<svg version="1.1" id="BX" xmlns="http://www.w3.org/2000/svg" xmlns:xlink="http://www.w3.org/1999/xlink" x="0px" y="0px"
	 width="145.147px" height="22.675px" viewBox="0 0 145.147 22.675" enable-background="new 0 0 145.147 22.675"
	 xml:space="preserve">
<g>
	<path fill="#FABB00" d="M3.862,16.295v-3.722v-2.48h9.278h1.637h2.332c1.092,0,1.642-0.616,1.65-1.848
		c-0.008-1.249-0.558-1.873-1.65-1.873h-1.687H3.862l0.025-2.456h8.683h4.341c2.894,0,4.341,1.24,4.341,3.721l-0.025,1.265
		c-0.132,1.422-0.662,2.282-1.588,2.581c0.926,0.396,1.456,1.166,1.588,2.307l0.025,1.266c0,2.48-1.447,3.721-4.341,3.721H12.57
		H3.887L3.862,16.295z M6.343,16.295l9.08,0.024h1.687c1.092,0,1.642-0.624,1.65-1.873c-0.008-1.231-0.558-1.849-1.65-1.849
		l-1.587-0.024H6.343V16.295z"/>
	<path fill="#FABB00" d="M38.047,18.776H25.643h-2.456l6.202-12.379c0.43-0.843,0.777-1.418,1.042-1.724
		c0.389-0.438,0.868-0.69,1.439-0.756c0.579,0.066,1.058,0.314,1.438,0.744c0.256,0.29,0.604,0.868,1.042,1.736l6.202,12.379H38.047
		z M27.838,16.295h8.968L32.49,7.637c-0.24-0.472-0.442-0.707-0.608-0.707s-0.368,0.235-0.608,0.707l-4.391,8.658H27.838z"/>
	<path fill="#FABB00" d="M42.487,3.916h17.366v2.48h-7.442v12.379h-2.456V6.396h-7.467V3.916z"/>
	<path fill="#FABB00" d="M73.323,6.372H61.763l0.025-2.456h8.683h4.341c2.894,0,4.341,1.24,4.341,3.721l-0.025,1.265
		c0,2.448-1.439,3.671-4.316,3.671h-7.938l12.106,6.202H73.77l-12.007-6.202v-2.48h9.278h1.637h2.332
		c1.092,0,1.642-0.616,1.65-1.848c-0.008-1.249-0.558-1.873-1.65-1.873H73.323z"/>
	<path fill="#FABB00" d="M89.696,3.891c5.821,0,8.732,2.481,8.732,7.442c0,4.962-2.89,7.446-8.67,7.455
		c-5.78,0.008-8.671-2.469-8.671-7.431C81.088,6.396,83.957,3.908,89.696,3.891z M95.948,11.333c0-3.308-2.063-4.958-6.189-4.949
		c-4.144-0.008-6.215,1.642-6.215,4.949s2.067,4.962,6.202,4.962S95.948,14.641,95.948,11.333z"/>
	<path fill="#FABB00" d="M102.857,7.637v1.24l-0.013,9.898h-2.456v-7.442V7.612V5.751v-1.86h8.732
		c5.739,0.017,8.608,2.505,8.608,7.467V18.8h-2.48v-7.467c0.017-3.308-2.047-4.958-6.189-4.949l-6.215-0.012L102.857,7.637z"/>
	<path fill="#FABB00" d="M119.689,3.916h2.48v14.86h-2.48V3.916z"/>
	<path fill="#FABB00" d="M141.247,3.916l-14.86,14.86h-2.48l14.811-14.86H141.247z M123.906,3.916l6.178,6.177l1.24-1.241
		l-4.912-4.937H123.906z M141.247,18.776l-6.177-6.202l-1.241,1.24l4.938,4.962H141.247z"/>
</g>
<rect x="0.007" fill="#FABB00" width="145.134" height="1.983"/>
<rect x="0.007" y="20.691" fill="#FABB00" width="145.134" height="1.984"/>
</svg>
